<svg xmlns="http://www.w3.org/2000/svg" xmlns:xlink="http://www.w3.org/1999/xlink" version="1.1" xml:space="preserve" enable-background="new 0 0 356 228" width="220" height="76" style=""><rect id="backgroundrect" width="100%" height="100%" x="0" y="0" fill="none" stroke="none"/>
  
<g class="currentLayer" style=""><title>Layer 1</title><g id="svg_1" class="">
    <polygon class="st0" points="0,17.5 9.699996948242188,17.5 9.699996948242188,58.399993896484375 0,58.399993896484375 0,74.60000610351562 51.900001525878906,74.60000610351562 51.900001525878906,58.399993896484375 42.099998474121094,58.399993896484375 42.099998474121094,17.5 51.900001525878906,17.5 51.900001525878906,0 0,0 " id="svg_2"/>
    <path class="st0" d="M131.8,58.400000000000006 v-21.5 c0,-13.7 -10,-18.7 -22.4,-18.7 c-8.8,0 -15.5,2.4 -21.3,9.1 c-0.4,0.5 -0.9,1.1 -1.5,1.6 V17.599999999999994 h-32 v16.3 h7.3 v24.5 h-7.3 v16.3 h40.6 v-16.3 h-7.7 v-14.1 c0,-6 4.5,-10.4 10.5,-10.4 c4.7,0 8.4,2.3 8.4,7.4 v17 h-7.5 v16.3 h39.7 v-16 c0,-0.1 -0.1,-0.2 -0.1,-0.30000000000000004 H131.8 z" id="svg_3"/>
    <path class="st0" d="M203.2,53.599999999999994 l-21.1,0 l-0.7000000000000001,0 c0,6 -4.4,8.8 -9.3,8.8 c-9.4,0 -10.2,-7.9 -10.2,-15.4 v-0.2 v0 c0,-7.5 0.7000000000000001,-15.4 10.2,-15.4 c7.4,0 8.7,6.4 8.9,12.5 l21.9,-2.4 c-2.3,-22.3 -24.3,-23.7 -29.8,-23.7 c-0.8,0 -1.2,0 -1.2,0 c-18.1,0 -35.9,8.9 -35.9,29.1 c0,4.3 0.8,8.1 2.3,11.4 h0.1 v0.30000000000000004 c5.4,12 19.4,17.4 33.5,17.4 c11.5,0 27.6,-2.8 31.2,-20.5 L203.2,53.599999999999994 z" id="svg_4"/>
    <circle class="st0" cx="210.70001220703125" cy="65.69999694824219" r="9.199999809265137" id="svg_5"/>
  </g></g></svg>